<svg width="266" height="74" viewBox="0 0 266 74" fill="none" xmlns="http://www.w3.org/2000/svg">
<path d="M0 8C0 3.58172 3.58172 0 8 0H258C262.418 0 266 3.58172 266 8V66C266 70.4183 262.418 74 258 74H8C3.58172 74 0 70.4183 0 66V8Z" fill="#030303"/>
<path d="M49.653 28.7412C46.1301 30.8824 43.9542 34.5529 43.9542 38.6314C43.9542 43.2196 46.7518 47.4 51 49.1333C50.1711 51.7843 48.9277 54.2314 47.3735 56.4745C45.094 59.6353 42.7108 62.898 39.188 62.898C35.6651 62.898 34.6289 60.8588 30.4843 60.8588C26.4434 60.8588 24.9928 63 21.6771 63C18.3614 63 16.0819 60.0431 13.4916 56.3726C10.0723 51.2745 8.10361 45.3608 8 39.1412C8 29.0471 14.6313 23.6431 21.2627 23.6431C24.7855 23.6431 27.6867 25.8863 29.8627 25.8863C31.9349 25.8863 35.2506 23.5412 39.188 23.5412C43.3325 23.4392 47.2699 25.3765 49.653 28.7412ZM37.3229 19.2588C39.0843 17.2196 40.0169 14.6706 40.1205 12.0196C40.1205 11.7137 40.1205 11.3059 40.0169 11C37.012 11.3059 34.2145 12.7333 32.2458 14.9765C30.4843 16.9137 29.4482 19.3608 29.3446 22.0118C29.3446 22.3176 29.3446 22.6235 29.4482 22.9294C29.6554 22.9294 29.9663 23.0314 30.1735 23.0314C32.9711 22.8275 35.5614 21.4 37.3229 19.2588Z" fill="white"/>
<path d="M73.2861 30.1C74.7661 30.1 76.0594 30.3867 77.1661 30.96C78.2861 31.52 79.1461 32.3333 79.7461 33.4C80.3594 34.4533 80.6661 35.6867 80.6661 37.1C80.6661 38.5133 80.3594 39.74 79.7461 40.78C79.1461 41.82 78.2861 42.62 77.1661 43.18C76.0594 43.7267 74.7661 44 73.2861 44H68.7461V30.1H73.2861ZM73.2861 42.14C74.9128 42.14 76.1594 41.7 77.0261 40.82C77.8928 39.94 78.3261 38.7 78.3261 37.1C78.3261 35.4867 77.8928 34.2267 77.0261 33.32C76.1594 32.4133 74.9128 31.96 73.2861 31.96H71.0261V42.14H73.2861ZM87.7058 44.18C86.6658 44.18 85.7258 43.9467 84.8858 43.48C84.0458 43 83.3858 42.3333 82.9058 41.48C82.4258 40.6133 82.1858 39.6133 82.1858 38.48C82.1858 37.36 82.4324 36.3667 82.9258 35.5C83.4191 34.6333 84.0924 33.9667 84.9458 33.5C85.7991 33.0333 86.7524 32.8 87.8058 32.8C88.8591 32.8 89.8124 33.0333 90.6658 33.5C91.5191 33.9667 92.1924 34.6333 92.6858 35.5C93.1791 36.3667 93.4258 37.36 93.4258 38.48C93.4258 39.6 93.1724 40.5933 92.6658 41.46C92.1591 42.3267 91.4658 43 90.5858 43.48C89.7191 43.9467 88.7591 44.18 87.7058 44.18ZM87.7058 42.2C88.2924 42.2 88.8391 42.06 89.3458 41.78C89.8658 41.5 90.2858 41.08 90.6058 40.52C90.9258 39.96 91.0858 39.28 91.0858 38.48C91.0858 37.68 90.9324 37.0067 90.6258 36.46C90.3191 35.9 89.9124 35.48 89.4058 35.2C88.8991 34.92 88.3524 34.78 87.7658 34.78C87.1791 34.78 86.6324 34.92 86.1258 35.2C85.6324 35.48 85.2391 35.9 84.9458 36.46C84.6524 37.0067 84.5058 37.68 84.5058 38.48C84.5058 39.6667 84.8058 40.5867 85.4058 41.24C86.0191 41.88 86.7858 42.2 87.7058 42.2ZM110.48 32.98L107.06 44H104.66L102.44 35.86L100.22 44H97.8197L94.3797 32.98H96.6997L98.9997 41.84L101.34 32.98H103.72L105.96 41.8L108.24 32.98H110.48ZM117.744 32.8C118.61 32.8 119.384 32.98 120.064 33.34C120.757 33.7 121.297 34.2333 121.684 34.94C122.07 35.6467 122.264 36.5 122.264 37.5V44H120.004V37.84C120.004 36.8533 119.757 36.1 119.264 35.58C118.77 35.0467 118.097 34.78 117.244 34.78C116.39 34.78 115.71 35.0467 115.204 35.58C114.71 36.1 114.464 36.8533 114.464 37.84V44H112.184V32.98H114.464V34.24C114.837 33.7867 115.31 33.4333 115.884 33.18C116.47 32.9267 117.09 32.8 117.744 32.8ZM127.452 29.2V44H125.172V29.2H127.452ZM135.225 44.18C134.185 44.18 133.245 43.9467 132.405 43.48C131.565 43 130.905 42.3333 130.425 41.48C129.945 40.6133 129.705 39.6133 129.705 38.48C129.705 37.36 129.952 36.3667 130.445 35.5C130.939 34.6333 131.612 33.9667 132.465 33.5C133.319 33.0333 134.272 32.8 135.325 32.8C136.379 32.8 137.332 33.0333 138.185 33.5C139.039 33.9667 139.712 34.6333 140.205 35.5C140.699 36.3667 140.945 37.36 140.945 38.48C140.945 39.6 140.692 40.5933 140.185 41.46C139.679 42.3267 138.985 43 138.105 43.48C137.239 43.9467 136.279 44.18 135.225 44.18ZM135.225 42.2C135.812 42.2 136.359 42.06 136.865 41.78C137.385 41.5 137.805 41.08 138.125 40.52C138.445 39.96 138.605 39.28 138.605 38.48C138.605 37.68 138.452 37.0067 138.145 36.46C137.839 35.9 137.432 35.48 136.925 35.2C136.419 34.92 135.872 34.78 135.285 34.78C134.699 34.78 134.152 34.92 133.645 35.2C133.152 35.48 132.759 35.9 132.465 36.46C132.172 37.0067 132.025 37.68 132.025 38.48C132.025 39.6667 132.325 40.5867 132.925 41.24C133.539 41.88 134.305 42.2 135.225 42.2ZM142.439 38.44C142.439 37.3333 142.666 36.3533 143.119 35.5C143.586 34.6467 144.213 33.9867 144.999 33.52C145.799 33.04 146.679 32.8 147.639 32.8C148.506 32.8 149.259 32.9733 149.899 33.32C150.553 33.6533 151.073 34.0733 151.459 34.58V32.98H153.759V44H151.459V42.36C151.073 42.88 150.546 43.3133 149.879 43.66C149.213 44.0067 148.453 44.18 147.599 44.18C146.653 44.18 145.786 43.94 144.999 43.46C144.213 42.9667 143.586 42.2867 143.119 41.42C142.666 40.54 142.439 39.5467 142.439 38.44ZM151.459 38.48C151.459 37.72 151.299 37.06 150.979 36.5C150.673 35.94 150.266 35.5133 149.759 35.22C149.253 34.9267 148.706 34.78 148.119 34.78C147.533 34.78 146.986 34.9267 146.479 35.22C145.973 35.5 145.559 35.92 145.239 36.48C144.933 37.0267 144.779 37.68 144.779 38.44C144.779 39.2 144.933 39.8667 145.239 40.44C145.559 41.0133 145.973 41.4533 146.479 41.76C146.999 42.0533 147.546 42.2 148.119 42.2C148.706 42.2 149.253 42.0533 149.759 41.76C150.266 41.4667 150.673 41.04 150.979 40.48C151.299 39.9067 151.459 39.24 151.459 38.48ZM155.994 38.44C155.994 37.3333 156.221 36.3533 156.674 35.5C157.141 34.6467 157.767 33.9867 158.554 33.52C159.354 33.04 160.241 32.8 161.214 32.8C161.934 32.8 162.641 32.96 163.334 33.28C164.041 33.5867 164.601 34 165.014 34.52V29.2H167.314V44H165.014V42.34C164.641 42.8733 164.121 43.3133 163.454 43.66C162.801 44.0067 162.047 44.18 161.194 44.18C160.234 44.18 159.354 43.94 158.554 43.46C157.767 42.9667 157.141 42.2867 156.674 41.42C156.221 40.54 155.994 39.5467 155.994 38.44ZM165.014 38.48C165.014 37.72 164.854 37.06 164.534 36.5C164.227 35.94 163.821 35.5133 163.314 35.22C162.807 34.9267 162.261 34.78 161.674 34.78C161.087 34.78 160.541 34.9267 160.034 35.22C159.527 35.5 159.114 35.92 158.794 36.48C158.487 37.0267 158.334 37.68 158.334 38.44C158.334 39.2 158.487 39.8667 158.794 40.44C159.114 41.0133 159.527 41.4533 160.034 41.76C160.554 42.0533 161.101 42.2 161.674 42.2C162.261 42.2 162.807 42.0533 163.314 41.76C163.821 41.4667 164.227 41.04 164.534 40.48C164.854 39.9067 165.014 39.24 165.014 38.48ZM174.744 38.48C174.744 37.3467 174.971 36.3533 175.424 35.5C175.891 34.6333 176.531 33.9667 177.344 33.5C178.157 33.0333 179.091 32.8 180.144 32.8C181.477 32.8 182.577 33.12 183.444 33.76C184.324 34.3867 184.917 35.2867 185.224 36.46H182.764C182.564 35.9133 182.244 35.4867 181.804 35.18C181.364 34.8733 180.811 34.72 180.144 34.72C179.211 34.72 178.464 35.0533 177.904 35.72C177.357 36.3733 177.084 37.2933 177.084 38.48C177.084 39.6667 177.357 40.5933 177.904 41.26C178.464 41.9267 179.211 42.26 180.144 42.26C181.464 42.26 182.337 41.68 182.764 40.52H185.224C184.904 41.64 184.304 42.5333 183.424 43.2C182.544 43.8533 181.451 44.18 180.144 44.18C179.091 44.18 178.157 43.9467 177.344 43.48C176.531 43 175.891 42.3333 175.424 41.48C174.971 40.6133 174.744 39.6133 174.744 38.48ZM192.276 44.18C191.236 44.18 190.296 43.9467 189.456 43.48C188.616 43 187.956 42.3333 187.476 41.48C186.996 40.6133 186.756 39.6133 186.756 38.48C186.756 37.36 187.003 36.3667 187.496 35.5C187.989 34.6333 188.663 33.9667 189.516 33.5C190.369 33.0333 191.323 32.8 192.376 32.8C193.429 32.8 194.383 33.0333 195.236 33.5C196.089 33.9667 196.763 34.6333 197.256 35.5C197.749 36.3667 197.996 37.36 197.996 38.48C197.996 39.6 197.743 40.5933 197.236 41.46C196.729 42.3267 196.036 43 195.156 43.48C194.289 43.9467 193.329 44.18 192.276 44.18ZM192.276 42.2C192.863 42.2 193.409 42.06 193.916 41.78C194.436 41.5 194.856 41.08 195.176 40.52C195.496 39.96 195.656 39.28 195.656 38.48C195.656 37.68 195.503 37.0067 195.196 36.46C194.889 35.9 194.483 35.48 193.976 35.2C193.469 34.92 192.923 34.78 192.336 34.78C191.749 34.78 191.203 34.92 190.696 35.2C190.203 35.48 189.809 35.9 189.516 36.46C189.223 37.0067 189.076 37.68 189.076 38.48C189.076 39.6667 189.376 40.5867 189.976 41.24C190.589 41.88 191.356 42.2 192.276 42.2ZM213.59 32.8C214.457 32.8 215.23 32.98 215.91 33.34C216.603 33.7 217.143 34.2333 217.53 34.94C217.93 35.6467 218.13 36.5 218.13 37.5V44H215.87V37.84C215.87 36.8533 215.623 36.1 215.13 35.58C214.637 35.0467 213.963 34.78 213.11 34.78C212.257 34.78 211.577 35.0467 211.07 35.58C210.577 36.1 210.33 36.8533 210.33 37.84V44H208.07V37.84C208.07 36.8533 207.823 36.1 207.33 35.58C206.837 35.0467 206.163 34.78 205.31 34.78C204.457 34.78 203.777 35.0467 203.27 35.58C202.777 36.1 202.53 36.8533 202.53 37.84V44H200.25V32.98H202.53V34.24C202.903 33.7867 203.377 33.4333 203.95 33.18C204.523 32.9267 205.137 32.8 205.79 32.8C206.67 32.8 207.457 32.9867 208.15 33.36C208.843 33.7333 209.377 34.2733 209.75 34.98C210.083 34.3133 210.603 33.7867 211.31 33.4C212.017 33 212.777 32.8 213.59 32.8ZM227.387 31.52C226.973 31.52 226.627 31.38 226.347 31.1C226.067 30.82 225.927 30.4733 225.927 30.06C225.927 29.6467 226.067 29.3 226.347 29.02C226.627 28.74 226.973 28.6 227.387 28.6C227.787 28.6 228.127 28.74 228.407 29.02C228.687 29.3 228.827 29.6467 228.827 30.06C228.827 30.4733 228.687 30.82 228.407 31.1C228.127 31.38 227.787 31.52 227.387 31.52ZM228.507 32.98V44H226.227V32.98H228.507ZM237.84 44.14C236.547 44.14 235.353 43.84 234.26 43.24C233.18 42.6267 232.32 41.78 231.68 40.7C231.053 39.6067 230.74 38.38 230.74 37.02C230.74 35.66 231.053 34.44 231.68 33.36C232.32 32.28 233.18 31.44 234.26 30.84C235.353 30.2267 236.547 29.92 237.84 29.92C239.147 29.92 240.34 30.2267 241.42 30.84C242.513 31.44 243.373 32.28 244 33.36C244.627 34.44 244.94 35.66 244.94 37.02C244.94 38.38 244.627 39.6067 244 40.7C243.373 41.78 242.513 42.6267 241.42 43.24C240.34 43.84 239.147 44.14 237.84 44.14ZM237.84 42.16C238.76 42.16 239.58 41.9533 240.3 41.54C241.02 41.1133 241.58 40.5133 241.98 39.74C242.393 38.9533 242.6 38.0467 242.6 37.02C242.6 35.9933 242.393 35.0933 241.98 34.32C241.58 33.5467 241.02 32.9533 240.3 32.54C239.58 32.1267 238.76 31.92 237.84 31.92C236.92 31.92 236.1 32.1267 235.38 32.54C234.66 32.9533 234.093 33.5467 233.68 34.32C233.28 35.0933 233.08 35.9933 233.08 37.02C233.08 38.0467 233.28 38.9533 233.68 39.74C234.093 40.5133 234.66 41.1133 235.38 41.54C236.1 41.9533 236.92 42.16 237.84 42.16ZM251.764 44.14C250.83 44.14 249.99 43.98 249.244 43.66C248.497 43.3267 247.91 42.86 247.484 42.26C247.057 41.66 246.844 40.96 246.844 40.16H249.284C249.337 40.76 249.57 41.2533 249.984 41.64C250.41 42.0267 251.004 42.22 251.764 42.22C252.55 42.22 253.164 42.0333 253.604 41.66C254.044 41.2733 254.264 40.78 254.264 40.18C254.264 39.7133 254.124 39.3333 253.844 39.04C253.577 38.7467 253.237 38.52 252.824 38.36C252.424 38.2 251.864 38.0267 251.144 37.84C250.237 37.6 249.497 37.36 248.924 37.12C248.364 36.8667 247.884 36.48 247.484 35.96C247.084 35.44 246.884 34.7467 246.884 33.88C246.884 33.08 247.084 32.38 247.484 31.78C247.884 31.18 248.444 30.72 249.164 30.4C249.884 30.08 250.717 29.92 251.664 29.92C253.01 29.92 254.11 30.26 254.964 30.94C255.83 31.6067 256.31 32.5267 256.404 33.7H253.884C253.844 33.1933 253.604 32.76 253.164 32.4C252.724 32.04 252.144 31.86 251.424 31.86C250.77 31.86 250.237 32.0267 249.824 32.36C249.41 32.6933 249.204 33.1733 249.204 33.8C249.204 34.2267 249.33 34.58 249.584 34.86C249.85 35.1267 250.184 35.34 250.584 35.5C250.984 35.66 251.53 35.8333 252.224 36.02C253.144 36.2733 253.89 36.5267 254.464 36.78C255.05 37.0333 255.544 37.4267 255.944 37.96C256.357 38.48 256.564 39.18 256.564 40.06C256.564 40.7667 256.37 41.4333 255.984 42.06C255.61 42.6867 255.057 43.1933 254.324 43.58C253.604 43.9533 252.75 44.14 251.764 44.14Z" fill="white"/>
</svg>
